#!OML:ASF E:\pregnant2\Project 1\Capture day 1\Session 1\pregnant2.ASF
:FULLY-SPECIFIED
:DEGREES
588
root 3.76708 16.8596 21.2622 -147.891 34.0692 -179.707
lowerback -18.5937 -1.20181 2.54098
upperback -15.2297 0.727699 1.75763
thorax -6.19298 1.38673 0.427679
lowerneck -12.5014 1.36499 3.78627
upperneck 40.8087 9.26482 -8.29264
head 17.8989 4.81059 -2.32399
rclavicle 2.16675e-014 -3.97569e-016
rhumerus -57.9008 10.6094 -85.5725
rradius 39.6939
rwrist 3.72604
rhand -15.2089 -13.8375
rfingers 7.12502
rthumb 10.9632 -43.5312
lclavicle 2.16675e-014 -3.97569e-016
lhumerus -65.0891 -28.0542 113.047
lradius 56.3062
lwrist 13.0976
lhand 15.4101 32.7692
lfingers 7.12502
lthumb 40.2375 57.9231
rfemur -49.146 -6.32844 37.784
rtibia 32.4121
rfoot -32.7773 -36.9187
rtoes 28.3216
lfemur -39.1742 4.81696 -26.6837
ltibia 49.5945
lfoot -19.3516 8.58857
ltoes -25.1558
589
root 3.74123 16.8448 21.3139 -147.172 34.039 -178.908
lowerback -18.6154 -0.943857 2.66504
upperback -15.307 1.10252 1.93778
thorax -6.27742 1.59469 0.595467
lowerneck -12.6581 1.09756 3.43044
upperneck 40.7899 8.7512 -7.9754
head 17.8252 4.56992 -2.20855
rclavicle 3.17062e-014 -1.07344e-014
rhumerus -57.7691 10.7913 -85.5245
rradius 39.7793
rwrist 4.0098
rhand -14.7508 -13.7572
rfingers 7.12502
rthumb 11.4051 -43.4271
lclavicle 3.17062e-014 -1.07344e-014
lhumerus -64.8836 -27.9012 113.005
lradius 56.0928
lwrist 13.1571
lhand 15.5897 32.7884
lfingers 7.12502
lthumb 40.4064 57.8905
rfemur -49.4645 -5.7488 38.3845
rtibia 32.2816
rfoot -32.4473 -37.0042
rtoes 28.4644
lfemur -39.3141 5.20997 -26.4136
ltibia 48.7602
lfoot -19.1826 8.0372
ltoes -24.8911
590
root 3.72095 16.8413 21.3498 -147.192 33.3246 -178.852
lowerback -18.6313 -0.995519 2.54828
upperback -15.2859 1.06567 1.99861
thorax -6.24563 1.59733 0.721457
lowerneck -12.7431 0.803853 2.97316
upperneck 40.758 8.18042 -7.55146
head 17.7121 4.30616 -2.03712
rclavicle -5.1684e-014 -5.28767e-014
rhumerus -57.6269 10.9394 -85.5201
rradius 39.7694
rwrist 4.10031
rhand -14.7228 -13.1365
rfingers 7.12502
rthumb 11.432 -42.8049
lclavicle -5.1684e-014 -5.28767e-014
lhumerus -64.7241 -27.7477 112.964
lradius 55.959
lwrist 13.4275
lhand 15.7763 33.0059
lfingers 7.12502
lthumb 40.5819 58.0538
rfemur -49.5436 -5.80772 38.5191
rtibia 32.1938
rfoot -32.6626 -37.3049
rtoes 28.7467
lfemur -38.9845 4.75061 -26.2547
ltibia 47.7939
lfoot -18.9847 7.40299
ltoes -24.8489
591
root 3.69823 16.8349 21.3862 -147.207 32.6322 -178.776
lowerback -18.6382 -1.02753 2.52127
upperback -15.2866 1.04848 2.0374
thorax -6.24411 1.60241 0.775158
lowerneck -12.7594 0.511707 2.56042
upperneck 40.7291 7.64088 -7.18128
head 17.601 4.06213 -1.89307
rclavicle -4.37326e-014 2.54444e-014
rhumerus -57.5055 11.1132 -85.5036
rradius 39.8043
rwrist 4.37472
rhand -14.5291 -13.0277
rfingers 7.12502
rthumb 11.6189 -42.6855
lclavicle -4.37326e-014 2.54444e-014
lhumerus -64.6907 -27.6399 113.028
lradius 55.7505
lwrist 13.4566
lhand 15.7694 32.7974
lfingers 7.12502
lthumb 40.5753 57.8472
rfemur -49.628 -5.86648 38.6655
rtibia 32.1098
rfoot -32.924 -37.5481
rtoes 29.061
lfemur -38.6897 4.27411 -26.0605
ltibia 46.8376
lfoot -19.2084 7.60653
ltoes -25.8945
592
root 3.67448 16.8288 21.425 -147.195 31.9725 -178.714
lowerback -18.6057 -1.0854 2.37926
upperback -15.2966 1.01353 2.09639
thorax -6.27261 1.60946 0.911583
lowerneck -12.7825 0.210342 2.08807
upperneck 40.6366 7.03284 -6.7189
head 17.4486 3.78519 -1.70946
rclavicle 3.0911e-014 -3.4191e-014
rhumerus -57.4449 11.3546 -85.5133
rradius 39.9998
rwrist 4.45411
rhand -14.231 -13.2617
rfingers 7.12502
rthumb 11.9063 -42.9032
lclavicle 3.0911e-014 -3.4191e-014
lhumerus -64.6011 -27.5263 113.051
lradius 55.6029
lwrist 13.6054
lhand 15.9433 32.8101
lfingers 7.12502
lthumb 40.7388 57.8089
rfemur -49.777 -5.86281 38.7751
rtibia 32.0677
rfoot -33.1753 -37.8292
rtoes 29.4045
lfemur -38.391 3.7493 -25.8571
ltibia 45.8494
lfoot -19.8742 8.51633
ltoes -24.7363
593
root 3.65004 16.825 21.4619 -147.24 31.383 -178.711
lowerback -18.6095 -1.12702 2.21973
upperback -15.2724 0.988577 2.11088
thorax -6.24142 1.6164 1.01342
lowerneck -12.7996 -0.0888275 1.62221
upperneck 40.5174 6.41897 -6.25038
head 17.2898 3.50611 -1.52603
rclavicle -5.09883e-014 2.62396e-014
rhumerus -57.1863 11.4518 -85.4561
rradius 40.0123
rwrist 4.70277
rhand -13.9755 -13.2838
rfingers 7.12502
rthumb 12.1528 -42.9108
lclavicle -5.09883e-014 2.62396e-014
lhumerus -64.4792 -27.4433 113.017
lradius 55.4761
lwrist 13.8101
lhand 16.0681 32.7674
lfingers 7.12502
lthumb 40.8561 57.7294
rfemur -49.8874 -5.94352 38.8511
rtibia 31.9822
rfoot -33.3174 -38.0749
rtoes 29.6189
lfemur -37.9986 3.16701 -25.6651
ltibia 44.938
lfoot -20.4141 9.63685
ltoes -24.1365
594
root 3.62519 16.8306 21.4998 -147.23 30.8108 -178.636
lowerback -18.5531 -1.16075 2.09828
upperback -15.277 0.977169 2.14212
thorax -6.27538 1.62948 1.1114
lowerneck -12.8264 -0.392271 1.17937
upperneck 40.3892 5.79195 -5.78504
head 17.1396 3.22373 -1.35121
rclavicle -1.26228e-014 2.26615e-014
rhumerus -57.0082 11.5895 -85.4421
rradius 40.1448
rwrist 4.99538
rhand -13.6746 -13.745
rfingers 7.12502
rthumb 12.4429 -43.3546
lclavicle -1.26228e-014 2.26615e-014
lhumerus -64.3503 -27.2858 112.931
lradius 55.3783
lwrist 14.0546
lhand 16.5771 32.9086
lfingers 7.12502
lthumb 41.3341 57.7178
rfemur -49.9893 -6.03488 39.0128
rtibia 31.8622
rfoot -33.3384 -38.3127
rtoes 29.7463
lfemur -37.705 2.52113 -25.315
ltibia 44.152
lfoot -20.6161 10.1042
ltoes -24.7616
595
root 3.59767 16.8368 21.5382 -147.285 30.2705 -178.657
lowerback -18.5077 -1.19815 1.91508
upperback -15.2543 0.956913 2.13282
thorax -6.27021 1.63715 1.20066
lowerneck -12.8307 -0.709073 0.704276
upperneck 40.2179 5.12762 -5.27971
head 16.9657 2.92412 -1.16048
rclavicle 4.87022e-014 -1.15295e-014
rhumerus -56.8741 11.8434 -85.4847
rradius 40.3838
rwrist 5.26877
rhand -13.4632 -13.9339
rfingers 7.12502
rthumb 12.6467 -43.531
lclavicle 4.87022e-014 -1.15295e-014
lhumerus -64.2739 -27.2563 112.934
lradius 55.3121
lwrist 14.2483
lhand 16.6565 32.9262
lfingers 7.12502
lthumb 41.4086 57.7113
rfemur -50.099 -6.17769 39.0975
rtibia 31.7205
rfoot -33.2391 -38.6065
rtoes 29.7939
lfemur -37.4219 1.79795 -25.0106
ltibia 43.46
lfoot -20.6331 10.5588
ltoes -24.8065
596
root 3.56808 16.8383 21.5762 -147.344 29.7423 -178.71
lowerback -18.4604 -1.24427 1.7537
upperback -15.268 0.932425 2.11322
thorax -6.3083 1.64409 1.26496
lowerneck -12.782 -1.02147 0.271658
upperneck 40.0652 4.49961 -4.82296
head 16.8059 2.6457 -0.992712
rclavicle 1.77912e-014 -2.34566e-014
rhumerus -56.7023 11.991 -85.452
rradius 40.451
rwrist 5.36092
rhand -13.4232 -13.7791
rfingers 7.12502
rthumb 12.6852 -43.3738
lclavicle 1.77912e-014 -2.34566e-014
lhumerus -64.2537 -27.1441 112.961
lradius 55.2285
lwrist 14.3804
lhand 16.7579 32.9029
lfingers 7.12502
lthumb 41.5037 57.657
rfemur -50.2405 -6.38699 39.1827
rtibia 31.5835
rfoot -33.222 -38.7533
rtoes 30.0276
lfemur -37.1236 1.12447 -24.7451
ltibia 42.8065
lfoot -20.8322 10.9209
ltoes -24.7695
597
root 3.53406 16.8362 21.6185 -147.145 29.4695 -178.642
lowerback -18.5125 -1.19852 1.64999
upperback -15.3285 1.03599 2.0618
thorax -6.35199 1.71648 1.27924
lowerneck -12.7178 -1.3394 -0.149601
upperneck 39.8657 3.83207 -4.33067
head 16.6243 2.3538 -0.819446
rclavicle 5.4467e-014 1.23246e-014
rhumerus -56.4145 12.0417 -85.4426
rradius 40.3738
rwrist 5.34275
rhand -13.6434 -13.4965
rfingers 7.12502
rthumb 12.4729 -43.1043
lclavicle 5.4467e-014 1.23246e-014
lhumerus -64.26 -27.1271 112.969
lradius 55.189
lwrist 14.519
lhand 16.822 32.8279
lfingers 7.12502
lthumb 41.5639 57.5624
rfemur -50.6171 -6.38377 39.3203
rtibia 31.4984
rfoot -32.8378 -38.9591
rtoes 29.9843
lfemur -37.1146 0.646428 -24.5051
ltibia 42.149
lfoot -21.0448 11.224
ltoes -24.6897
598
root 3.5093 16.8393 21.6567 -147.33 28.9931 -178.741
lowerback -18.3958 -1.26448 1.38022
upperback -15.2817 0.972268 2.00845
thorax -6.35288 1.69986 1.36404
lowerneck -12.695 -1.63778 -0.572044
upperneck 39.6542 3.1739 -3.79263
head 16.4574 2.06801 -0.625056
rclavicle 8.90058e-014 1.51076e-014
rhumerus -56.1633 12.1427 -85.4367
rradius 40.4446
rwrist 5.3973
rhand -13.6665 -13.3155
rfingers 7.12502
rthumb 12.4507 -42.9246
lclavicle 8.90058e-014 1.51076e-014
lhumerus -64.2369 -27.1275 112.945
lradius 55.1755
lwrist 14.7046
lhand 16.7554 32.7746
lfingers 7.12502
lthumb 41.5014 57.5295
rfemur -50.6717 -6.47701 39.2562
rtibia 31.4758
rfoot -32.9663 -39.2354
rtoes 30.1069
lfemur -36.7945 0.0831963 -24.2454
ltibia 41.4263
lfoot -21.2658 11.2618
ltoes -24.7751
